<mxfile host="Electron" agent="Mozilla/5.0 (Windows NT 10.0; Win64; x64) AppleWebKit/537.36 (KHTML, like Gecko) draw.io/26.0.16 Chrome/132.0.6834.196 Electron/34.2.0 Safari/537.36" version="26.0.16">
  <diagram name="Page-1" id="saxVPou17J5R_UWaE9X1">
    <mxGraphModel dx="989" dy="659" grid="1" gridSize="10" guides="1" tooltips="1" connect="1" arrows="1" fold="1" page="1" pageScale="1" pageWidth="827" pageHeight="1169" math="0" shadow="0">
      <root>
        <mxCell id="0" />
        <mxCell id="1" parent="0" />
        <mxCell id="T2Gyupl2OgUaISn8hXXu-1" value="" style="shape=image;verticalLabelPosition=bottom;labelBackgroundColor=default;verticalAlign=top;aspect=fixed;imageAspect=0;image=data:image/png,iVBORw0KGgoAAAANSUhEUgAAAOEAAACnCAIAAABo0KxcAAAT6klEQVR4Ae2d/1NTV97H9w+pO6vtuH0yc2cIrcsKWyyMOm5gI4viFwaZNICC5WGoWgpmZJFUvmX40lCSh0AjT+LehGZlqV3rdhFHqy4Vv7AyD+0gtmW1WigN0FJSSTJln3NvvtwkN5cbErgnyce5P9zce3LPOe/P677P5xxyr78QE6Jwtj/KJX+US8K5AnwXFOBW4Bfcp1c8m1uenVuevWIxKAAKrFqByDOamJzycmb2lt37QtpezsxOTE5ZdTfgizGsQOQZXQWgNM0vZ4Ifh5V3xSqmkWc0JPv0KxyrKkO/wlEAGAXrwl0BYBT3CIXjQLHxXWAUGMVdAfwZ3VHXPz73o93pQJttZvR8Je6axoZ74dOLNWO0sKPtztf3n1pX3D658/cjha6FqkBdMnpGbQ77ow8VBwiRWCKr6TTqKEabh6xzQw2B5YMdCbV8sOvA8fVXgIvRvIP7CmSHUlN+y2xWaspvC2SH8g7uow8GruFTU/WjNcNTd+5fLi1baZW0rOPd+1N3hnu3UeupzIro/eYhq9Px1UCRn3cevzZlD4XRUMv7VQcfhVSAi9FXX9la+Fo+E1Ma0MLX8l99ZSsnoxc+fDr+buVKgNLr/JWXB5+OqYIwKm64MeewO2fHBzopK0V/ue0e+d419DtnbzQToipGMjB331hKiNC3no1eG/zK5rBPnPcvH3gnwBGcFeBiVEyImJgGAiomREF8NHKMEqIDZz4Y+3oB5aPPrBP9p9GgTzQMzXp9tEilaX8drf9ndI/aHNYhFcWow+7896W6/bQB+JTHOR7QtkAFVmDUg2mhLB9tDAelrxWE0YiN9d4W7z/9t8+tTpSbyvwYLTWOeiZVTmScLkbRjusXM8CoR4ro21mZUS+mAYAG99F9WyI0Z3JDRivbO+GwOz83+jKKDs4NtyB/pRIDYNRXtOiD0q/9vBj1+w7zYxAf5ZeJBvzuhHll175CY2r97yKJSExk1/SPU3N8l486PzdS4z5idPr66QyJTIcmWEF91F0+6mPGolJ4P7DE/ILYM6q+Mj1LJaNUPvpoqBtNiQhR6flx2zO70zF+ntjRPPgVtb/waOjSyAwro8zywGiUKYA9ozHtEJgbGCbNA0ajzFQw4WY9mwGMAqO4KxB5RuE3zuvpMfFQV+QZhWdF4oGb9exj5Bldz9ZDXfGgQLiMwrPL8UCJsH0Ml1FhWw+1x4MCwCjus9p4oJC7j8AoMIq7AsAo7hHi9ph4OAuMAqO4KwCM4h6heHBK7j4Co8Ao7goAo7hHiNtj4uEsMAqM4q4AMIp7hOLBKbn7CIwCo7grAIziHiFuj4mHs9HCaIXWTFrcm1HXUiNLxig8JU0mM9l+HKcmxdAzNlHEqF5VgDwvLTO3UqWznFMrstfYAqvUFrNawSPY5c0GY4/e0lGRxlVYoux0Xa24UW/pqSvmKrzGXYuqqteWUT5vjOJnhxVas4tRqrxE0UGaVIf5fXeN4516rJ3U1RdUd5k1NVKOusraSV7EY9EpnCBeW0aZr+KhpWd9IQ+PqPgxKkpTaCz6usK82rNkS2UqTYakRkt2/Umi6NC3Hj/WrqdyA4OmvogagnNPansMdLZg6qwtThWJC+qM2uoTKh06SOrbj+dXtuqpfYO2SiomRCeaDW4fTS5UqI0kdcFzGmWuD4hpVWpLd20eIVF2otrdfZGeaNSY6K/0NJ3Ire4658pVtFX7lJ2k20eZxTSqclSvuEptVB3zNKZLKUf2nO3ukZk0aavzcGLI3WUfWSJ4cG0Z9bzjhH6x2WoBFYkJf0bFVWoqzPvqu8muUxQZ0pNdZl19rkjRQVrOaZTydDGRXqrSWzqrswiRWJpfLJfuIkTi1H1KHal9i2LUTHadzt9FJOcpNBazwbtvaCpHEFRo6bEepZt6VakkjRDtys7N8zFLdGOcVaK3CGad0li6a2UUPWj/nLomL11MJGfl5+5lXo2gqqbGekaxdJlCbSLVCili1N0Y0a6SJqNZo5SKihv1pneOUe2XHMjfh3oUN9uaM+rBNNgbo/hp7c+oy0cZZNCI5BGIUWOj3HVZF8o+PmQxk9oqmlH34Cut7vKknt59F6MofeyoYG8nKoxuDHQW3SSuhMSnDS6Y3MQzGFW0M5pKyFU9ZPsbFKPebNXV8bQ3WkwkadSpW88cK86Mr8nZejDqxZTtjVHssfc3CT9GGfloaoXWbGgt8fqZDx9uRhENqqNZVFag6Ahg1GOZqF4PTK6dwvqgjMrOUKmCe8HBYnZlyb7w0Z7nuazXR32LcTFKTxbL36pt7dRbVkh8Y81i14lRfiByiOtlFM3rG3UmUlPjmtcnV75DmlpbPH4WnNHDu4jkrNK6s2RojIp9xvrDhXmediKqXJkGdVOh3JRsOUG7u3eslxei9KBCa9YpD1AWWFBn5B7rA3w0q+hoaXY6RWqFltSr5J42xP5OFDEafH30jRY013HngqyMphXVdhnQFUyddTWNOv+x3uudLD4qJpKLlRrXnInUq0rcWCB21QrXjI06iOb49EKptLJV75ozGdQ1KBmQKN5BkzaUh7gZFRPscyb3jIpuDMof8hRqIz3rIg1djWVUgutuhv+YE2vHo4VRbt2RlZ49kxu2W3PXAmeFUSAGGE3O88yIY91R4vMmjH5GS5uMBk19CcrVYItJBaKfUUAz1hUARsF9cVcAGMU9QjE5fIfUKWAUGMVdAWAU9wiFZDkxWRgYBUZxVwAYxT1CMWmNIXUKGAVGcVcgFhiF9/SGZEtRVzgWGA38v/aiLgzQYA4FYpPRnSnbC3cXl2SXhbQV7i7embKdQyw4JYgCscnoKgClaS7cXSxIGKBSDgVik1Ee9lmyN2FzYsqRwJIcYsEpQRSIT0YRoJueI34vYUkGBAkDVMqhQBwyWnLwNwkvbNi46UWpnC1h5RALTgmiQNwxmr81YdOvMzISn2cd6EuyywQJA1TKoUB8MUoBuvOgNPfVXyZmZLIM9MEZza7rH5/70e50oG3u6yvtRMvIrN3psA41cK6BN9yYc9gnznOWifUfgHLwx+dUHDEq35b8Xxu37d1dVrI97QVRFutAH4TRHc1DVqfDOtarKJKIxBJZTWdLzf+DdX6cZpQ+yw4rMBr2HYg7o3zeGBW4hh84Wy9K/93mX/0OAZpddvDlzZue2+jdNmzbz0hMWe7syivTDvv0VYX/KTej/seZUQFGmWqsah93Rvm8MWpFRilAk7MCB3dJRsKGhO07S5hMswBHs6gKGK9djB4f+Ldn0N/hTQmeWUe6RWIPo5Ljf5tYcM6Oml4PuM6qIsfSzhi9Du6Met5xwvHGKG5Gi3buTNiQwLLMlLln6682p6T7AMo+1gfzS89xBCKVmKrv2JDjNqCUYL+i5nU3o/2nB74EQFd5c0YBox5Mg70xipPR3NQNjGH9uY2bEnORa+4+kMIGKBejQX2UBhExSiWm4+eZfkb5qO3HBafj6cCbqwxS/Fgma0+jg1EvpmxvjOJklDl5P/IH0fOvbkeApm58ces2lj8ysTNK5aNzQw3+Cgb4aDBGHw1+MPGj3TbRW8rEF/b5KRA1jPrzwegeX0YzpYm/TNsvPbT91xsTtsqZOShzn62iHT3/t+B0WCf6qUFcIjvWqmku8s7rqaSTOdafPkCIMl5TNNfKPPlohoZKAwYDJl6MjrBVDdYriiNG5SmJLyRKf88JKLuPIowO91z1ro/aZkbPV7IxSuxoHvxq7hm1jPrMOtF/3MOomHAtYA2pdgCLISkQP4weyXhx46YNzyf85lARY6WJ6aD0fkjyQeF1UCBuGJVkEM9t3JxwgBvQ4D4KY65gCsQLo/KURD6AAqPr4IuhVhGbjMJvnEPlAOfysckoPCuCM3Ohti02GQ1VBSiPswKxwCg8u4wzYeG3LRYYDV8FuALOCgCjgi2p4IwFVm0DRoFR3BUARnGPEFaWJkhjgFFgFHcFgFHcIySIdWFVKTAKjOKuADCKe4SwsjRBGgOMAqO4KwCM4h4hQawLq0qBUWAUdwWAUdwjhJWlCdIYYJQvo4oO0mL229QKeGJu7RUARvky6rYQuaqH1FaF+i0ov3oFYp9RPm+McvPHR0dglI9KkSwT+4zyeWPUqhlVdBjaT9edJUljo1xcUGc0e0Z/uapHryoQiYnkYqXGRFJJgkFTX5QcSl2RjHT01hv7jHreccLxxqhQ4ufjoyhJPaeuyUtHV2BltLzF1NNUnpksJpKzjreYumvz1j6BC6U7UXAbxAWjHkyDvTEqlKD6M4oclMaOjdHiRr3vTMtjtFEARyiyrGF34oVRL6Zsb4wKJRihMVpYr7doT6aBd4ahQBwxGgqIHK4QnFHpyS6zvrUkXZwqKW/UWcxUPlrSZDLrVaUShOlOaak8N0LN4GhhrJ0CRkONaHBGGdMjY+sxZbtrzlSoUBvpORNpMDYeBkZDVQAYDZVRKL/eCgCj6614qC4C5YFRYBR3BYBR3CMEPgqMAqO4KwCM4h4h8FFgFBjFXQFgFPcIgY8Co8Ao7goAo7hHCHwUGAVGcVcAGI1MhI6cyT9yJt/jeYmvvLSlaFeSYk9SdU40bYo9W4p2Jb7ykqcjOOwAo5Fh9M3u0je7S+mIJr7yUvTRybyXFHuwwhQYjTyjyEGrcw6qixv73m670BDS1tj39kF1seDWu6VoFw4OSrcBGI08o7SJrgJQmubGvrcFZzRJsQcYjQwZ+OjIHOtpwkKyT7/CwjNanYOPtuCjkblbgNG1YxoYBUbZVx7WjrlQrwyMrh+j+psDo1NTi0vU/xzusDuXFmam7l27qfUb6NsuNMBYz+QYGF0fRntvT80s2W0/fDf26f3eP6PJvv6v96+Pfze3ZLfNTg391Xf6z8bo0aa7k/M/ufi2ff+g/y85SRdH5h32h3fYjZDtIiGUZFIi7D4wuvaMXh74YsG2tPDF7duUZV77+8jjsfHJ4cFraFlKf3toEp0dv3bZu0oViFfWjQc2h/3RSMeh6pykthrl1YvvAaPC3jpRV3vQOdPlgclF+6J12OWU/7w34x3rp0b/SXPZO2JdcC5+4cE0kNG2iXmn48lgj68Rgo9GHSgCNjgIo72j87bFGe9Q/tGTOafDnY867D886Xcno723ZxaW5u/RKAcySg/rzoXJwauUldJ/FqIYnX78YJ7i3jYz3NaGIM764OrD7xfpiuZnhjXanKw7k07Ht9f/kpNU/f6/Fu3Ox/2oGDoYwL37D04CiulXNYz1azrWU4x6TPRCAwejI1ZORqtzDn149TMrRd7S/MO7OjToU4w6Z242aXOyPhiZdtinx1qTqv+MKJy+eqotJ+v9qw9/sjsfX8zqufnIYX90vwZ95adF2+LYe9U5xsd259zwKTeUfjeGHygCfgRG15TRhrYIjfVegLS6j57MO1FuSgHnnTP946HDPj9x1m8i9d7konPpgbG6ZnDG7vzmH20T87bJm7cWFv81gAyVYto3f3AjKyCUflUDo2vM6AWEafhzJi+jiCGEo/PJRV8cuRnNOTX2rXPpyaM5+2c3cjRfLs5/MznvmL91kR3QJPg7k9+NEgMfg+Sjnql62GtPfe/3ftx0FKWbbyrvTlJz/CA+yjrWV+ck9Q1Po0XZB8bqnKQrYzaH3bkw0uZ2Td97AIGLT1DAR9feR91rn2Gt4Q8MTy+4pkHOpflHE/3l7nzUvT7q9lG2OROF4NlbC2i4z0Jc9n+2ZLdNvh+IpucIMBoZMvDRcSUf9Rgq1871sU+sP1iXl5efzk73XOvz4CLIDj7ago9G5m4Jn9GH33xx6e6VPfUl4vLMPfUlfZ9+fO/LMUHopCsFRiNDBj46hsno9bFPLtwaEJdnFr1bJS7PpLe+Tz8W0E3x0RZ8NDJ3iw+j1GNMIf3G+bsfrLSDLi8vX7h1OaO2gHbTp7PTwlgp/MYZn3s0Ui1hMrqKZ0WWl5dp71ym/v3888//c4kUl2cuLy8Lwig8KxIZ64oUXhG5DpPRVTxz93R2OoiPfisAo/DMXUSYwO0iYT673HOtr+/Tj7edPCBwPgrPLuMGFlbtuXv/Xt8nH3nn9Tcu3b1/D6sWCtUYmDNhlHjojfonU0+Xl5efTD3V/+97QjGBW73AKEaM4gYHJu0BRoFR3BUARnGPECZmJmAzgFFgFHcFgFHcIySggWFSNTAKjOKuADCKe4QwMTMBmwGMAqO4KwCM4h4hAQ0Mk6qBUWAUdwWAUf4RqtCaSYt3o/97er+v71PqSEtPXTHhdxw+rl4BYJS/dhVaMyuXvleoUgOjkU0SgFFfwrj8Dxjlr1UkSwKj/NVkYTRPoTaeoxIA0tCllKcRIrHbR9OKarsMrtzA2FwmJkTeI57CXLcE/4bFeElglH+AffNRKunMkskLs9MRfweqz5rVCgajig7yrDIXUbtTWpgnFRNl7ef0raWSNEKUlnms3aCrz+VfdVyXBEb5h5/FR/cebzGSnomUD6Oy0zoLaTB2tqgUR2U7ReKCOqN3voW+on2Lf9VxXRIY5R/+QEbREdoaxUSF1tdHxYRoV/bhyj/VabsNFkNTqbzOaNbUpPKvDkq6FABG+aMQhNGSdHGqpLxeZ/FlVFZyVJaZjEgtqKPSgMOtBtLYeDQLYZq+90i+DJJRfgoAo+Ewmlys1JjQWG/oajyp6vYZ60sb9dQp0kLqtYp8lIbKTmr1rsTApK8r5RehyK7jROPVgFH+jEJJYRQARoXRPRr9TKg2A6PAKO4KAKO4R0go98KnXmAUGMVdAWAU9wjh42dCtQQYBUZxVwAYxT1CQrkXPvUCo8Ao7goAo7hHCB8/E6ol/wFmgGcHlcDm3gAAAABJRU5ErkJggg==;" vertex="1" parent="1">
          <mxGeometry x="70" y="310" width="225" height="167" as="geometry" />
        </mxCell>
        <mxCell id="T2Gyupl2OgUaISn8hXXu-8" value="" style="endArrow=none;html=1;rounded=0;fillColor=#f8cecc;strokeColor=#FF0000;jumpSize=9;" edge="1" parent="1">
          <mxGeometry width="50" height="50" relative="1" as="geometry">
            <mxPoint x="210" y="380" as="sourcePoint" />
            <mxPoint x="390" y="360" as="targetPoint" />
          </mxGeometry>
        </mxCell>
        <mxCell id="T2Gyupl2OgUaISn8hXXu-9" value="&lt;font style=&quot;font-size: 20px;&quot;&gt;Akce&lt;/font&gt;" style="edgeLabel;html=1;align=center;verticalAlign=middle;resizable=0;points=[];" vertex="1" connectable="0" parent="T2Gyupl2OgUaISn8hXXu-8">
          <mxGeometry x="0.4817" y="3" relative="1" as="geometry">
            <mxPoint as="offset" />
          </mxGeometry>
        </mxCell>
        <mxCell id="T2Gyupl2OgUaISn8hXXu-10" value="&lt;font style=&quot;font-size: 20px;&quot;&gt;Reakce&lt;/font&gt;" style="endArrow=none;html=1;rounded=0;fillColor=#f8cecc;strokeColor=#FF0000;" edge="1" parent="1">
          <mxGeometry x="0.2854" y="-3" width="50" height="50" relative="1" as="geometry">
            <mxPoint x="234" y="430" as="sourcePoint" />
            <mxPoint x="414" y="410" as="targetPoint" />
            <mxPoint as="offset" />
          </mxGeometry>
        </mxCell>
      </root>
    </mxGraphModel>
  </diagram>
</mxfile>
